<?xml version="1.0" standalone="no"?>
<!DOCTYPE svg PUBLIC "-//W3C//DTD SVG 20010904//EN"
 "http://www.w3.org/TR/2001/REC-SVG-20010904/DTD/svg10.dtd">
<svg version="1.0" xmlns="http://www.w3.org/2000/svg"
 width="500.000000pt" height="500.000000pt" viewBox="0 0 500.000000 500.000000"
 preserveAspectRatio="xMidYMid meet">
<metadata>
Created by potrace 1.16, written by Peter Selinger 2001-2019
</metadata>
<g transform="translate(0.000000,500.000000) scale(0.100000,-0.100000)"
fill="#000000" stroke="none">
<path d="M0 4514 c0 -317 4 -483 10 -479 6 3 10 1 10 -4 0 -6 -4 -11 -9 -11
-6 0 -10 -606 -11 -1599 0 -1284 2 -1600 12 -1604 10 -4 10 -6 1 -6 -9 -1 -12
-97 -13 -406 l0 -405 194 0 c125 0 197 4 201 10 4 7 11 8 18 1 13 -10 99 -8
135 3 13 5 22 3 22 -3 0 -8 170 -9 573 -6 314 3 606 4 647 3 139 -5 345 -1
397 7 29 4 60 4 70 0 33 -14 174 -13 188 2 8 8 16 9 20 4 8 -14 -27 -13 744
-17 566 -4 706 -2 713 8 6 10 8 10 8 1 0 -10 114 -13 535 -13 l535 0 -1 2500
0 2500 -2500 0 -2499 0 0 -486z m2332 -48 c24 -8 73 -17 110 -20 37 -4 86 -15
110 -26 24 -11 55 -20 70 -20 44 0 111 -39 141 -81 15 -22 27 -44 27 -50 0 -5
5 -7 10 -4 6 4 8 11 5 16 -11 16 6 10 45 -18 38 -27 39 -30 34 -76 -3 -31 -14
-61 -33 -88 -17 -22 -33 -54 -36 -70 -6 -28 -8 -29 -21 -12 -7 10 -14 14 -14
8 0 -5 18 -30 39 -54 l39 -44 -11 41 c-15 56 0 116 29 120 19 3 26 -8 49 -67
16 -39 30 -71 33 -71 2 0 2 7 -2 15 -3 8 -1 15 4 15 6 0 10 10 10 22 0 21 1
21 16 6 19 -19 30 -133 12 -121 -7 3 -8 1 -4 -5 10 -16 45 -15 42 1 -2 6 -6
20 -10 29 -5 10 -1 31 8 49 14 29 14 34 1 49 -8 9 -15 19 -15 23 0 10 52 -12
72 -30 10 -9 18 -13 18 -9 0 4 27 -20 60 -52 33 -33 60 -64 60 -69 0 -5 11
-19 25 -31 21 -18 24 -28 20 -59 -2 -21 -1 -33 3 -28 13 18 34 17 29 -2 -3
-10 -8 -31 -12 -48 -6 -29 -6 -29 10 -10 16 20 16 19 9 -5 -21 -76 -32 -93
-72 -117 -41 -24 -42 -24 -42 -5 0 12 -5 24 -10 27 -6 4 -8 10 -5 15 3 4 -2
13 -10 20 -8 7 -15 24 -15 38 0 14 -3 22 -7 19 -3 -4 -17 8 -30 25 -23 32 -37
71 -47 133 -2 17 -2 -5 0 -47 4 -76 4 -76 -19 -70 -30 9 -72 45 -121 105 -21
27 -41 46 -44 43 -2 -3 0 -12 6 -19 23 -27 62 -149 62 -191 0 -28 6 -48 16
-57 29 -24 64 -109 57 -141 -3 -16 -11 -32 -18 -34 -6 -3 -10 -17 -7 -34 6
-43 -6 -83 -23 -76 -7 2 -16 0 -19 -7 -2 -7 -5 -2 -5 10 -1 26 -103 133 -126
133 -8 0 -15 4 -15 9 0 5 -18 23 -41 39 -47 35 -108 93 -229 218 -47 48 -107
102 -135 119 -63 40 -136 78 -141 72 -2 -2 22 -17 53 -33 65 -33 121 -84 182
-167 23 -32 53 -62 67 -67 13 -5 24 -14 24 -19 0 -26 114 -123 135 -115 7 3
16 -4 20 -16 5 -15 12 -19 26 -15 12 4 19 2 19 -7 0 -8 18 -24 40 -37 22 -12
45 -32 51 -43 10 -18 8 -25 -12 -41 l-24 -20 23 7 c23 8 23 7 8 -29 -8 -19
-11 -33 -6 -30 6 3 10 0 11 -7 1 -7 2 -35 4 -63 6 -114 32 -234 70 -320 7 -16
26 -64 41 -105 40 -106 96 -186 160 -228 10 -6 48 -31 83 -53 66 -43 191 -99
221 -99 27 0 151 -46 143 -53 -3 -4 -2 -7 3 -7 16 0 55 -40 49 -51 -4 -5 -1
-9 5 -9 7 0 9 -7 6 -17 -4 -9 -1 -20 5 -24 10 -6 31 -99 25 -106 -1 -2 -15 30
-30 70 -15 39 -31 81 -36 92 -8 19 -9 19 -9 -3 -1 -12 6 -33 15 -47 8 -13 14
-29 13 -37 -2 -7 5 -27 14 -45 9 -18 17 -50 17 -73 0 -33 3 -40 20 -40 12 0
20 7 20 18 1 26 57 -101 65 -147 4 -23 10 -41 14 -41 5 0 7 -12 6 -27 -6 -88
-8 -97 -12 -79 -3 11 -11 26 -19 33 -32 33 -47 -73 -17 -125 15 -26 15 -34 4
-55 l-13 -25 -45 34 -45 35 -19 -22 c-10 -12 -19 -26 -19 -31 0 -5 -4 -7 -9
-4 -5 3 -15 -2 -22 -11 -12 -15 -12 -16 3 -10 13 4 15 2 11 -10 -5 -13 -3 -14
15 -4 19 10 22 8 28 -13 8 -34 -12 -69 -37 -61 -12 4 -21 1 -25 -9 -3 -9 -10
-14 -14 -11 -5 3 -11 1 -14 -3 -3 -5 7 -8 22 -7 15 1 32 -2 38 -7 8 -5 13 -1
17 11 3 11 22 28 43 38 22 10 41 20 44 23 3 3 19 12 35 20 17 8 55 29 85 46
128 74 297 83 276 16 -4 -12 -12 -20 -17 -17 -5 4 -9 1 -9 -5 0 -6 10 -15 23
-21 18 -8 17 -9 -12 -4 -19 3 -40 0 -47 -6 -7 -6 -35 -12 -61 -13 -28 -2 -63
-12 -85 -25 -20 -12 -47 -24 -60 -26 -51 -8 -164 -18 -175 -16 -7 1 -13 -7
-13 -17 0 -10 -3 -22 -7 -26 -4 -3 -8 -13 -9 -21 -3 -17 25 -6 46 19 7 9 25
16 40 16 22 0 31 -7 39 -27 l11 -28 -3 33 c-3 29 -2 31 11 18 36 -35 15 -73
-48 -91 -20 -6 -23 -5 -12 6 29 31 -1 90 -31 60 -8 -8 -5 -11 13 -11 23 -1 21
-3 -12 -20 -20 -11 -51 -22 -70 -24 -81 -11 -117 -19 -113 -26 2 -4 -8 -5 -23
-3 -24 3 -25 2 -7 -7 17 -9 15 -10 -12 -7 -18 2 -30 0 -28 -4 7 -10 -59 -18
-70 -8 -12 12 -28 12 -21 0 10 -16 -38 -22 -50 -6 -10 14 -12 14 -18 0 -6 -16
-56 -21 -56 -5 0 5 7 6 17 3 12 -5 14 -3 8 6 -5 10 -23 12 -64 7 -48 -5 -275
-8 -321 -4 -8 1 -25 -2 -38 -6 -16 -5 -22 -4 -20 5 2 7 -8 18 -22 26 l-25 13
33 0 c17 0 32 5 32 10 0 6 -9 10 -20 10 -11 0 -20 4 -20 9 0 5 -11 12 -25 15
-14 4 -23 10 -21 15 6 9 -41 21 -85 21 -15 0 -31 5 -34 11 -4 6 -19 7 -37 4
-21 -5 -33 -3 -39 6 -6 10 -9 11 -9 2 0 -7 -6 -13 -14 -13 -8 0 -16 -4 -18
-10 -5 -15 -88 -16 -98 -1 -11 19 -200 -6 -200 -25 0 -8 -5 -14 -11 -14 -5 0
-7 5 -4 10 4 6 -7 10 -27 9 -27 0 -30 -2 -13 -9 14 -6 16 -9 5 -10 -8 -2 -19
-2 -24 -1 -5 1 -12 -2 -15 -7 -3 -5 -15 -6 -26 -1 -19 7 -19 8 -1 8 11 1 17 4
13 7 -8 9 -48 -6 -42 -16 3 -4 -11 -11 -30 -14 -44 -9 -45 -21 -2 -35 38 -12
105 -8 135 8 12 7 28 9 34 5 8 -5 5 -10 -8 -15 -35 -13 10 -22 71 -14 55 6 77
25 31 25 -14 0 -28 5 -31 10 -6 10 38 7 102 -6 17 -3 21 0 17 11 -5 11 1 15
21 15 14 0 24 4 21 9 -3 5 6 11 20 14 18 3 24 1 20 -9 -4 -10 2 -14 18 -14 13
0 27 -7 30 -16 8 -21 -2 -33 -13 -16 -5 9 -20 11 -49 6 -32 -5 -42 -3 -42 7 0
11 -2 11 -9 -1 -6 -8 -8 -17 -5 -21 2 -4 -4 -5 -15 -2 -11 3 -21 -2 -24 -11
-5 -12 10 -15 99 -18 77 -2 103 0 100 9 -4 9 3 9 25 1 17 -6 33 -8 36 -4 4 3
-1 6 -10 6 -24 0 -21 16 6 26 17 6 8 9 -35 11 -82 6 -72 23 13 23 44 0 68 4
64 10 -4 6 6 10 23 10 18 0 32 -6 36 -16 5 -13 4 -14 -7 -6 -10 9 -20 9 -40
-1 -36 -16 -35 -35 2 -29 19 3 30 -1 34 -12 5 -13 0 -16 -25 -16 -17 0 -29 -2
-27 -5 6 -5 238 -18 314 -17 28 1 90 4 140 8 85 7 89 6 72 -10 -10 -10 -24
-15 -33 -12 -8 3 -13 2 -10 -2 8 -14 -437 -35 -584 -28 -295 13 -363 18 -545
41 l-40 5 49 -19 c55 -23 66 -35 64 -71 0 -14 1 -31 3 -39 2 -7 -11 -22 -29
-32 -31 -18 -33 -18 -38 -1 -14 45 -25 62 -38 62 -21 0 -39 37 -32 66 5 20 3
24 -14 24 -27 0 -22 -18 31 -118 22 -40 39 -82 39 -92 0 -11 5 -20 10 -20 6 0
10 -7 10 -16 0 -8 -5 -12 -11 -8 -7 4 -7 -1 1 -16 9 -16 14 -19 20 -10 5 9 9
9 14 1 13 -20 27 -12 16 8 -16 30 -13 32 28 26 66 -12 71 -15 74 -48 2 -27 7
-32 26 -30 15 2 21 -1 16 -8 -8 -13 33 -3 53 13 16 13 178 11 222 -2 21 -6 60
-6 105 0 39 5 98 10 131 10 35 0 91 10 135 24 41 14 102 31 135 39 33 8 87 26
120 41 61 26 148 35 160 16 3 -6 1 -10 -5 -10 -7 0 -10 -6 -7 -14 6 -16 -59
-50 -68 -35 -4 5 7 14 24 20 17 6 31 17 31 25 0 11 -8 10 -37 -6 -21 -11 -42
-20 -47 -20 -5 0 -20 -12 -33 -26 -20 -21 -22 -29 -11 -36 10 -7 10 -9 -2 -7
-33 3 -61 -2 -56 -10 3 -5 -6 -13 -22 -19 -15 -5 -40 -21 -55 -36 -28 -26 -47
-33 -47 -17 0 5 -9 11 -21 14 -12 3 -19 3 -16 0 3 -2 -3 -13 -14 -24 -26 -26
-123 -59 -187 -64 -54 -4 -87 -20 -76 -36 3 -5 -4 -9 -14 -9 -11 0 -22 -6 -25
-12 -3 -9 7 -13 34 -13 44 0 43 -1 29 25 -8 15 -6 17 10 13 11 -3 25 -11 31
-19 15 -18 40 -18 33 0 -8 21 60 43 172 56 90 10 100 9 112 -7 11 -15 9 -19
-10 -27 -13 -5 -29 -10 -37 -12 -7 -1 -18 -7 -24 -13 -6 -6 -19 -11 -29 -11
-10 0 -18 -5 -18 -11 0 -12 -62 -8 -94 6 -14 6 -17 5 -12 -3 4 -7 1 -12 -6
-13 -7 0 -39 -2 -71 -3 -32 -2 -60 1 -63 6 -3 4 -11 8 -17 8 -8 0 -7 -4 2 -9
23 -15 -5 -41 -43 -42 -17 0 -25 -3 -18 -6 6 -2 9 -9 6 -14 -3 -6 -12 -5 -21
2 -12 11 -14 10 -11 -7 2 -13 -2 -18 -14 -16 -10 2 -27 -5 -38 -16 -18 -16
-119 -56 -145 -57 -5 0 -23 -12 -40 -27 -16 -15 -40 -30 -53 -33 -13 -3 -30
-11 -38 -18 -54 -46 -82 -79 -102 -120 -13 -26 -32 -52 -43 -58 -11 -5 -17
-14 -14 -20 4 -5 3 -9 -2 -9 -4 0 -28 -19 -53 -41 -25 -21 -57 -45 -72 -52
-16 -6 -28 -20 -28 -30 0 -14 -4 -16 -18 -8 -15 8 -28 1 -68 -38 -58 -56 -109
-86 -141 -82 -13 1 -23 -3 -23 -9 0 -7 -8 -9 -19 -5 -11 3 -22 1 -26 -5 -11
-18 -106 -12 -121 8 -8 10 -13 12 -14 5 0 -7 -9 -13 -20 -13 -27 0 -27 50 0
141 29 96 54 120 186 184 103 49 173 98 174 121 1 5 23 26 49 47 34 27 47 44
44 56 -3 11 2 21 12 25 9 3 13 2 10 -4 -11 -18 6 -10 46 22 21 17 37 34 34 36
-3 3 3 15 14 26 26 29 36 104 17 125 -25 28 -106 180 -106 201 0 10 -4 21 -10
25 -5 3 -7 11 -4 18 7 18 -40 157 -76 223 -20 38 -30 71 -30 98 l1 41 17 -33
c10 -18 21 -30 25 -26 4 4 7 0 7 -8 0 -13 29 -34 35 -26 1 2 9 17 17 35 15 31
15 33 -8 48 -14 9 -49 49 -80 90 -30 41 -61 75 -69 75 -8 0 -15 7 -15 15 0 8
-5 15 -11 15 -6 0 -9 -7 -5 -15 3 -8 -2 -19 -12 -24 -15 -9 -14 -10 6 -11 24
0 140 -106 128 -117 -3 -4 -16 3 -29 14 -32 30 -102 63 -132 63 -28 0 -32 11
-12 32 16 16 15 70 -1 76 -7 2 -10 7 -8 11 3 4 -4 7 -14 7 -17 0 -18 -2 -4
-17 14 -16 13 -18 -6 -24 -14 -4 -28 -1 -39 9 -22 20 -31 20 -31 1 0 -8 7 -15
15 -15 10 0 14 -9 13 -25 -1 -14 -8 -25 -15 -25 -19 0 -25 -17 -7 -24 8 -3 12
-2 9 4 -3 5 3 8 14 7 10 0 17 -7 14 -14 -5 -12 -45 -28 -146 -58 -87 -25 -63
-28 43 -5 110 24 100 23 100 9 0 -5 -4 -7 -10 -4 -5 3 -10 1 -10 -4 0 -6 -15
-17 -32 -25 -44 -19 -21 -20 32 -1 51 18 50 18 50 4 0 -5 -15 -16 -34 -24 -19
-8 -37 -19 -41 -25 -8 -14 18 -13 32 1 6 6 19 9 29 7 27 -6 -97 -124 -211
-200 -49 -34 -117 -80 -150 -103 -62 -44 -580 -306 -599 -303 -16 2 -46 -13
-46 -24 0 -15 -49 -63 -56 -55 -4 4 5 36 21 72 21 50 25 69 16 78 -8 8 -11 6
-11 -10 0 -30 -68 -102 -79 -84 -5 7 -6 21 -4 31 3 9 -2 20 -10 23 -11 4 -12
-4 -6 -44 4 -27 10 -52 13 -57 2 -4 7 -26 10 -48 4 -23 22 -94 41 -159 32
-108 54 -156 103 -225 11 -16 12 -21 3 -16 -10 7 -12 6 -6 -5 5 -7 10 -24 11
-38 2 -14 13 -33 26 -42 39 -30 12 -32 -45 -5 -29 15 -61 24 -69 21 -9 -4 -28
1 -42 10 -28 19 -32 15 -16 -16 7 -13 7 -19 0 -19 -5 0 -10 4 -10 10 0 5 -7 7
-16 3 -10 -4 -17 2 -21 16 -4 18 -8 19 -20 9 -12 -10 -14 -9 -12 3 4 23 -11
52 -49 94 -6 7 -12 17 -12 21 0 4 -10 21 -23 38 -57 76 -197 325 -197 352 -1
83 36 163 140 298 25 32 62 83 82 113 42 60 69 86 111 104 l27 11 0 112 1 111
49 95 c28 52 76 149 109 215 59 123 110 199 164 244 61 52 202 151 214 151 7
0 13 5 13 11 0 5 4 8 9 5 5 -4 11 -3 13 1 4 10 75 63 83 63 4 0 0 -11 -9 -25
-22 -34 -20 -43 4 -15 11 13 20 27 20 32 0 4 7 8 15 8 8 0 15 -4 15 -10 0 -5
5 -10 11 -10 6 0 9 8 7 18 -4 18 56 52 96 52 64 2 236 85 236 115 0 14 124
144 139 146 48 5 70 13 120 43 32 20 64 43 71 51 7 8 21 15 31 15 17 0 17 -2
-3 -37 -15 -25 -18 -38 -10 -41 9 -3 8 -11 -3 -32 -21 -41 -18 -51 4 -14 20
33 40 51 42 37 0 -4 2 -20 4 -36 2 -15 0 -25 -6 -22 -11 7 -11 -3 1 -30 8 -18
9 -18 9 -2 1 11 6 15 12 11 7 -4 9 0 5 14 -4 11 -9 64 -12 117 -2 53 -9 106
-15 116 -13 24 -86 62 -94 49 -3 -6 0 -10 8 -10 8 0 17 -9 20 -20 3 -11 12
-20 21 -20 9 0 16 -4 16 -9 0 -10 -19 -19 -65 -31 -16 -5 -48 -15 -70 -24 -41
-15 -102 -12 -138 6 -10 5 -40 12 -65 15 -69 7 -113 37 -178 120 -33 41 -72
82 -89 90 -34 18 -68 43 -124 90 -44 38 -98 142 -139 269 -52 158 -56 187 -43
283 20 143 49 270 78 335 38 85 140 191 292 305 197 147 192 144 295 149 64 3
99 10 120 23 19 12 50 19 79 19 27 0 74 7 105 16 36 11 73 14 106 10 41 -4 63
-1 111 19 71 29 72 29 127 11z m726 -782 c50 -35 67 -42 73 -32 15 23 10 -61
-5 -90 -8 -15 -24 -36 -36 -47 l-23 -20 8 25 c6 20 5 23 -6 13 -7 -7 -17 -13
-22 -13 -5 0 -7 6 -4 13 2 6 0 24 -4 40 -9 33 -2 36 11 5 5 -13 9 -16 9 -8 1
21 -16 45 -31 45 -7 0 -13 7 -13 15 0 8 -6 21 -12 28 -7 7 -13 19 -13 27 0 7
-3 20 -6 29 -9 25 3 20 74 -30z m308 -355 c14 -24 4 -90 -24 -150 -17 -35 -40
-91 -53 -124 -51 -136 -102 -225 -131 -225 -5 0 -2 7 6 16 25 25 34 47 40 97
4 26 15 69 25 97 20 54 20 58 -2 36 -12 -12 -14 -8 -13 29 1 46 35 105 61 105
7 0 17 9 20 20 3 11 11 20 17 20 5 0 0 -16 -11 -36 -12 -20 -19 -39 -17 -42
10 -9 56 103 56 136 0 32 13 42 26 21z m679 -1524 c22 -8 63 -15 90 -15 52 -2
148 -27 109 -29 -16 -1 -23 -10 -28 -32 -5 -26 -9 -29 -28 -23 -13 4 -35 7
-50 6 -15 0 -31 4 -34 10 -5 7 -9 7 -13 0 -9 -15 -77 1 -102 24 -24 22 -25 61
-1 67 9 3 17 5 17 6 0 0 18 -6 40 -14z m263 -141 c86 -16 113 -29 106 -49 -4
-8 -11 -15 -16 -15 -6 0 -8 -9 -5 -21 4 -14 2 -19 -8 -15 -7 2 -50 10 -94 16
-87 13 -131 37 -131 71 0 22 36 41 60 32 8 -3 48 -12 88 -19z m-48 -163 c0 -5
16 -18 35 -30 23 -14 33 -25 29 -36 -3 -8 -4 -25 0 -38 5 -21 12 -23 58 -24
41 0 53 -3 53 -16 0 -8 4 -19 8 -23 4 -4 7 -24 7 -45 0 -48 14 -57 30 -19 15
37 37 38 52 4 10 -22 10 -28 -5 -39 -9 -7 -17 -19 -17 -28 0 -8 -4 -17 -9 -19
-12 -4 -91 -128 -91 -143 0 -7 -8 -27 -17 -46 -10 -19 -18 -38 -19 -44 0 -5
-2 -17 -3 -25 -1 -12 -3 -12 -10 -2 -6 11 -14 6 -30 -17 -12 -17 -28 -31 -36
-31 -7 0 -15 -7 -19 -15 -3 -8 -14 -15 -25 -15 -14 0 -19 5 -15 15 4 8 1 15
-5 15 -6 0 -11 -6 -12 -12 0 -7 -5 -2 -11 12 -6 14 -10 31 -9 37 1 8 -5 10
-15 6 -14 -5 -15 -3 -6 14 6 11 8 29 5 41 -3 12 -1 22 3 22 5 0 9 23 8 50 0
28 3 53 8 56 4 3 8 14 8 25 0 10 6 19 13 20 9 0 9 2 0 5 -7 3 -9 13 -5 22 5
15 4 15 -12 0 -22 -22 -21 -22 -23 3 -2 28 -10 34 -26 21 -10 -9 -18 -8 -33 3
-12 9 -14 14 -6 15 7 0 10 5 7 10 -4 6 -11 7 -17 4 -6 -4 -14 -1 -18 6 -6 9
-12 9 -31 0 l-24 -13 23 25 c12 13 22 29 22 34 0 6 15 25 34 43 29 28 37 31
55 22 12 -7 21 -15 21 -20 0 -4 6 -8 14 -8 11 0 12 4 3 19 -9 15 -9 20 2 27 9
6 10 10 2 12 -6 2 -13 15 -16 29 -3 14 -9 26 -15 28 -5 2 -10 11 -10 19 0 9
-6 13 -15 9 -31 -11 -14 14 20 30 20 9 38 20 41 25 6 10 44 -7 44 -20z m-2559
-112 c-11 -18 -17 -38 -14 -45 3 -8 -5 -35 -18 -62 -12 -26 -22 -50 -21 -54 1
-5 -2 -8 -8 -8 -5 0 -10 -7 -10 -15 0 -8 -5 -15 -11 -15 -6 0 -8 -7 -5 -17 4
-10 4 -14 0 -11 -8 8 -79 -27 -90 -44 -5 -8 -2 -9 11 -5 12 5 25 -1 42 -19 13
-14 27 -23 31 -20 3 4 0 11 -8 16 -17 11 -9 13 14 4 12 -5 13 -9 3 -25 -6 -10
-20 -19 -30 -19 -10 0 -20 -7 -23 -15 -13 -32 -85 -53 -196 -58 -94 -3 -107
-2 -119 15 -7 10 -20 18 -29 18 -8 0 8 12 35 26 28 15 75 42 106 60 31 19 62
34 68 34 6 0 16 11 23 24 6 14 25 30 42 38 17 7 43 25 57 41 20 21 28 25 33
15 3 -7 3 -3 0 10 -3 12 -1 22 4 22 6 0 22 21 38 47 27 47 70 93 85 93 5 0 0
-14 -10 -31z m-102 -450 c41 -6 85 -18 97 -26 13 -8 24 -13 26 -12 2 2 12 -3
23 -10 14 -9 15 -11 3 -7 -13 4 -15 1 -11 -12 6 -15 3 -14 -15 2 -28 24 -38
16 -13 -10 29 -31 43 -62 31 -69 -5 -3 -10 -1 -10 5 0 6 -7 19 -16 28 -15 15
-16 14 -9 -8 6 -23 38 -57 108 -116 16 -14 27 -27 24 -30 -3 -4 -30 2 -59 12
-29 10 -64 19 -78 20 -37 2 -99 31 -106 49 -3 8 -12 15 -18 15 -7 0 -22 9 -34
21 -12 11 -27 17 -32 14 -17 -11 72 -82 136 -109 36 -14 71 -26 79 -26 8 0 15
-6 15 -14 0 -8 6 -16 13 -19 8 -3 7 -7 -5 -12 -9 -4 -39 4 -70 18 -29 13 -73
30 -98 36 -25 7 -81 32 -125 56 -44 24 -111 53 -150 65 -38 13 -96 33 -127 46
-62 26 -88 30 -88 14 0 -5 5 -10 11 -10 6 0 43 -16 81 -35 39 -19 86 -38 105
-41 31 -6 57 -24 34 -24 -18 0 -301 -142 -301 -151 0 -4 -16 -11 -35 -15 -19
-3 -35 -10 -35 -15 0 -5 -8 -9 -17 -9 -23 0 -211 -119 -234 -148 -32 -41 -21
-49 14 -11 38 41 150 98 252 128 42 12 99 40 140 67 83 55 126 64 181 36 26
-13 71 -22 134 -26 52 -4 97 -12 101 -18 4 -6 18 -11 33 -11 14 0 23 -3 20 -8
-3 -5 10 -15 28 -23 l33 -15 -50 7 c-88 12 -200 8 -220 -8 -14 -11 -17 -12
-11 -1 7 11 -5 13 -75 9 -93 -6 -243 -53 -399 -126 -117 -54 -189 -77 -202
-64 -20 20 -25 121 -9 165 5 14 30 67 54 118 24 52 54 116 66 142 21 47 26 51
124 97 56 26 120 53 142 60 85 26 397 31 544 9z m2392 -145 c112 -4 143 -10
133 -26 -4 -7 5 -8 25 -3 20 4 31 3 31 -4 0 -6 14 -11 30 -11 29 0 29 -1 12
-18 -13 -13 -29 -18 -50 -14 -38 5 -82 -5 -82 -18 0 -6 11 -10 24 -10 41 0 39
-18 -2 -29 -82 -23 -99 -24 -105 -7 -3 8 -2 18 3 21 6 4 10 12 10 18 0 7 -4 6
-10 -3 -6 -9 -10 -10 -10 -3 0 7 -17 15 -37 19 -21 4 -50 13 -65 20 -15 8 -59
16 -99 19 -39 2 -77 9 -83 14 -7 6 -17 6 -26 1 -13 -8 -13 -10 -1 -10 8 0 12
-2 10 -5 -3 -2 -16 -1 -29 2 l-24 6 25 10 24 10 -22 4 c-24 4 -29 14 -15 28 4
4 57 4 117 0 61 -4 158 -9 216 -11z m-3745 -266 c17 -42 19 -59 12 -106 -5
-32 -13 -58 -18 -60 -20 -7 -9 -60 22 -108 24 -38 68 -135 68 -151 0 -1 -7 0
-15 4 -9 3 -22 -2 -30 -13 -13 -17 -14 -17 -15 -2 0 9 4 19 10 23 10 6 2 35
-10 35 -5 0 -11 -6 -13 -12 -2 -7 -3 0 -1 16 3 22 1 26 -9 18 -14 -12 -15 -95
-2 -125 11 -26 1 -30 -23 -10 -14 13 -25 44 -36 108 -9 50 -21 115 -27 145
-20 106 -16 209 10 275 24 59 24 59 40 36 9 -13 25 -45 37 -73z m1089 -117 c3
-5 -5 -13 -17 -17 -20 -6 -21 -7 -4 -20 16 -11 15 -13 -10 -16 -30 -3 -85 -69
-65 -76 29 -10 -76 -112 -114 -112 -8 0 -30 -14 -50 -31 -45 -40 -45 -20 2 43
20 28 59 85 87 127 43 64 58 78 96 93 52 20 67 21 75 9z m-1024 -128 c15 -45
31 -71 60 -96 21 -19 39 -37 39 -40 0 -2 18 -23 40 -45 22 -22 40 -44 40 -50
0 -11 -58 -25 -71 -16 -5 3 -7 10 -4 15 4 5 -5 13 -19 19 -17 6 -37 32 -61 77
-20 37 -47 88 -61 113 -20 36 -24 53 -18 85 8 49 28 66 32 27 2 -15 12 -55 23
-89z m822 68 c-2 -11 -19 -44 -38 -72 -19 -28 -35 -56 -35 -63 0 -6 -11 -23
-25 -38 -14 -15 -25 -32 -25 -38 0 -6 -4 -8 -10 -5 -6 3 -7 -1 -4 -9 10 -26
-25 -31 -49 -8 -15 16 -18 24 -10 34 6 7 11 30 10 51 -1 26 -3 33 -10 22 -4
-8 -12 -13 -17 -10 -12 7 59 107 72 103 5 -2 26 11 45 30 28 26 42 32 67 29
25 -3 31 -8 29 -26z"/>
<path d="M2055 1841 c3 -12 8 -34 10 -49 4 -31 28 -122 46 -172 14 -42 56
-100 71 -100 7 0 6 6 -2 15 -7 9 -10 18 -8 21 3 3 14 -5 25 -18 10 -13 34 -32
53 -42 l35 -19 -26 29 c-68 76 -133 188 -174 297 -18 48 -44 80 -30 38z"/>
</g>
</svg>
