<?xml version="1.0" standalone="no"?>
<!DOCTYPE svg PUBLIC "-//W3C//DTD SVG 20010904//EN"
 "http://www.w3.org/TR/2001/REC-SVG-20010904/DTD/svg10.dtd">
<svg version="1.0" xmlns="http://www.w3.org/2000/svg"
 width="500.000000pt" height="500.000000pt" viewBox="0 0 500.000000 500.000000"
 preserveAspectRatio="xMidYMid meet">
<metadata>
Created by potrace 1.16, written by Peter Selinger 2001-2019
</metadata>
<g transform="translate(0.000000,500.000000) scale(0.100000,-0.100000)"
fill="#000000" stroke="none">
<path d="M0 2500 l0 -2500 2500 0 2500 0 0 2500 0 2500 -2500 0 -2500 0 0
-2500z m2244 1824 c8 -9 14 -7 23 10 12 21 12 21 13 -4 0 -15 -5 -31 -12 -38
-9 -9 -9 -12 2 -12 9 0 7 -5 -5 -14 -11 -8 -23 -12 -27 -10 -4 3 -5 -8 -2 -24
3 -17 1 -32 -5 -36 -14 -9 -81 20 -81 35 0 7 -3 10 -6 7 -3 -4 1 -19 9 -35 8
-15 12 -33 10 -39 -4 -12 42 -26 52 -16 3 3 -3 14 -12 25 -18 20 -18 20 9 2
16 -10 25 -22 21 -29 -4 -6 0 -6 9 2 13 10 19 10 31 -2 13 -13 24 -13 98 0
107 19 249 24 249 10 0 -6 5 -4 10 4 6 9 10 10 10 3 0 -7 15 -11 38 -11 55 1
99 -4 81 -9 -22 -5 -33 -43 -13 -43 8 0 20 -11 26 -25 8 -18 17 -24 30 -19 10
3 18 0 18 -6 0 -6 -4 -9 -9 -5 -15 9 -42 -25 -36 -46 8 -24 -8 -24 -35 -2 -25
21 -26 40 -2 46 9 3 -8 5 -38 5 -44 -1 -48 -2 -21 -7 27 -5 31 -8 20 -17 -8
-6 -22 -14 -33 -18 -18 -6 -18 -7 -1 -26 14 -16 16 -23 7 -32 -17 -17 -15 -28
6 -28 15 -1 15 -2 -2 -15 -11 -8 -14 -15 -8 -15 7 0 12 -3 12 -7 0 -18 -122
-46 -234 -55 -66 -5 -128 -14 -137 -19 -10 -5 -24 -7 -32 -4 -32 13 -111 -42
-100 -70 6 -17 32 -27 46 -18 7 4 21 9 32 10 11 2 37 10 59 19 37 14 105 13
146 -3 8 -4 18 -7 23 -7 13 -2 10 -20 -4 -27 -23 -11 -154 -49 -169 -49 -9 0
-7 5 6 15 10 8 17 15 14 15 -27 5 -100 3 -100 -2 0 -5 -6 -8 -14 -8 -17 0 -28
-38 -13 -47 6 -4 52 -7 102 -8 195 -3 192 -3 191 -27 -1 -16 -10 -24 -35 -30
l-33 -9 31 -29 32 -28 26 24 c14 13 32 24 39 24 19 0 82 69 83 89 1 37 14 87
27 102 8 9 11 19 7 22 -3 4 10 7 30 7 38 0 62 -23 70 -65 2 -11 9 -33 15 -48
7 -15 14 -40 17 -55 14 -67 28 -112 34 -112 4 0 15 -16 24 -35 16 -33 15 -35
-2 -44 -10 -6 -62 -9 -117 -9 -86 1 -99 -1 -102 -16 -7 -35 27 -56 87 -53 44
2 56 -1 59 -14 2 -11 -6 -19 -20 -22 -30 -8 -65 -34 -57 -42 4 -3 23 1 44 9
35 15 36 15 33 -6 -3 -19 -10 -22 -60 -25 -31 -1 -61 -3 -65 -4 -20 -3 -53 15
-53 29 0 8 -7 20 -16 26 -14 11 -14 15 4 46 11 19 25 54 31 76 11 41 18 46 84
68 25 8 14 22 -16 21 -24 -1 -147 -91 -147 -107 0 -5 -9 -8 -19 -8 -11 0 -28
-15 -40 -36 -12 -19 -17 -32 -11 -29 13 8 13 8 -13 -55 -37 -90 -101 -141
-114 -91 -6 22 -40 35 -47 17 -2 -6 -5 3 -5 21 -1 38 -16 51 -24 21 -4 -12 -9
-19 -13 -15 -4 4 -14 2 -21 -5 -11 -9 -17 -9 -24 3 -5 8 -7 19 -4 26 2 6 -1
13 -8 16 -7 2 -11 21 -11 46 1 40 0 43 -23 38 -18 -3 -22 -1 -18 12 3 10 -4
27 -15 39 -11 12 -20 35 -20 52 0 17 -6 41 -14 53 -22 35 -35 252 -21 347 13
86 47 173 82 209 18 19 33 38 33 43 0 13 -16 9 -30 -7 -7 -8 -19 -15 -26 -15
-8 0 -14 -4 -14 -9 0 -12 -62 -21 -75 -11 -9 7 -48 14 -69 11 -5 -1 -3 -8 4
-16 16 -19 3 -40 -15 -25 -9 8 -15 8 -20 0 -3 -5 -1 -10 4 -10 6 0 11 -6 11
-14 0 -8 3 -16 8 -19 4 -2 2 -2 -5 -1 -21 5 -26 -17 -7 -32 17 -12 17 -13 2
-8 -14 5 -18 1 -18 -20 0 -19 5 -26 19 -26 11 0 22 -4 26 -9 3 -6 -9 -7 -31
-4 -29 5 -36 3 -32 -8 2 -8 14 -18 26 -24 23 -10 30 -25 11 -25 -5 0 -7 -4 -4
-10 3 -6 -4 -10 -16 -10 -22 0 -59 -26 -59 -41 0 -5 7 -5 17 -2 11 4 14 3 9
-5 -8 -14 -36 -16 -36 -3 0 20 -26 17 -36 -4 -10 -20 -9 -22 9 -17 16 4 19 2
14 -12 -4 -10 -2 -26 3 -37 9 -15 7 -19 -6 -19 -16 0 -16 -2 1 -20 10 -11 14
-20 9 -20 -5 0 -10 -9 -10 -20 0 -13 7 -20 19 -20 10 0 15 -4 12 -10 -3 -5
-15 -10 -26 -10 -16 0 -18 -3 -10 -19 8 -14 7 -22 -6 -32 -15 -12 -16 -11 -11
9 4 12 2 22 -3 22 -5 0 -9 7 -9 15 0 8 -7 15 -16 15 -11 0 -15 -6 -11 -20 3
-13 0 -20 -9 -20 -8 0 -14 -4 -14 -10 0 -5 -4 -10 -10 -10 -5 0 -10 7 -10 15
0 8 -6 15 -13 15 -7 0 -18 9 -25 20 -7 12 -17 18 -22 15 -6 -3 -10 1 -10 11 0
13 -3 14 -14 5 -7 -6 -21 -9 -30 -5 -11 4 -16 1 -16 -10 0 -9 -4 -16 -10 -16
-5 0 -10 -7 -10 -15 0 -9 -9 -15 -24 -15 -13 0 -26 -6 -29 -12 -3 -8 -14 -2
-31 17 -31 35 -31 38 -9 75 18 31 72 46 104 30 30 -16 41 -13 29 9 -17 33 -11
48 25 65 35 17 35 17 18 41 -22 30 -33 31 -40 5 -3 -11 -11 -20 -19 -20 -7 0
-11 -8 -9 -19 5 -29 -17 -43 -49 -31 -34 13 -56 13 -56 0 0 -5 7 -7 15 -4 17
7 18 3 9 -20 -3 -9 -15 -16 -25 -16 -15 0 -18 5 -15 25 3 16 -1 29 -13 37 -9
7 -21 19 -25 26 -7 11 -4 12 13 2 20 -10 21 -9 15 14 -8 32 29 76 64 76 12 0
22 5 22 10 0 6 -5 10 -11 10 -7 0 -8 11 -4 30 5 23 3 30 -9 30 -9 0 -16 5 -16
11 0 12 50 59 63 59 4 0 7 7 7 15 0 8 9 19 20 25 11 6 20 16 20 24 0 7 12 22
26 35 15 13 24 31 23 44 -2 27 10 59 21 52 5 -3 11 -1 15 5 3 5 15 10 27 10
11 0 22 8 25 19 3 10 15 21 28 23 18 4 22 1 18 -11 -3 -9 4 -3 15 12 13 20 21
25 24 15 4 -10 9 -9 25 5 11 9 27 17 36 17 9 0 17 5 17 12 0 6 3 8 7 5 3 -4
15 1 25 10 17 15 20 15 28 3 8 -13 10 -12 10 3 0 9 5 17 10 17 6 0 10 5 10 11
0 5 -4 7 -10 4 -5 -3 -10 -1 -10 4 0 17 18 13 39 -8 17 -17 19 -17 29 -1 14
22 54 19 63 -6 7 -17 8 -17 8 -1 1 12 9 17 31 17 17 0 30 5 31 13 0 8 3 7 6
-3 3 -8 11 -19 17 -26z m520 -1161 c37 -7 16 -23 -31 -23 -42 0 -63 -9 -63
-26 0 -8 -8 -18 -17 -21 -10 -4 -24 -13 -31 -20 -8 -7 -17 -11 -22 -8 -5 3
-11 1 -15 -5 -3 -5 1 -10 9 -10 9 0 16 -9 16 -21 0 -12 -4 -18 -11 -13 -6 3
-15 0 -20 -7 -7 -11 -9 -9 -9 6 -1 11 -7 37 -14 58 -8 20 -9 37 -4 37 5 0 8 6
7 13 -3 28 3 37 34 46 30 9 106 7 171 -6z m-519 -263 c6 -4 46 -22 90 -39 44
-18 98 -41 120 -51 22 -9 57 -25 78 -34 43 -18 42 -36 0 -29 -26 4 -25 3 10
-19 36 -23 42 -47 7 -28 -19 10 -30 4 -30 -16 0 -8 12 -12 30 -12 32 1 62 -26
53 -49 -3 -7 2 -13 11 -13 9 0 16 -4 16 -9 0 -11 -29 -23 -39 -17 -4 3 -7 -4
-8 -14 -1 -11 3 -19 9 -17 20 4 19 -21 -2 -26 -22 -6 -23 -23 -3 -44 15 -17
46 -17 40 0 -2 6 -10 11 -16 9 -9 -2 -9 3 -1 17 5 11 10 29 10 41 0 16 5 20
15 16 8 -3 15 -2 15 3 0 5 8 8 18 7 11 -1 16 5 14 17 -2 9 1 17 6 17 14 0 21
-37 11 -47 -13 -13 0 -43 18 -43 8 0 11 -4 8 -10 -3 -5 -1 -10 4 -10 6 0 11
11 11 25 0 15 -6 25 -14 25 -11 0 -13 9 -9 35 5 32 4 35 -20 35 -23 0 -37 16
-37 43 0 7 5 5 10 -5 6 -9 18 -14 29 -11 11 3 21 -2 25 -12 3 -9 10 -13 16
-10 5 3 10 -1 10 -11 0 -11 6 -15 20 -11 22 6 27 -12 8 -31 -18 -18 0 -28 23
-14 18 12 19 11 10 -7 -6 -11 -19 -26 -29 -33 -10 -7 -22 -19 -26 -26 -10 -16
11 -81 35 -108 11 -11 16 -25 12 -30 -4 -5 -1 -3 7 4 16 14 30 16 30 4 0 -5
-10 -14 -22 -20 l-23 -11 23 0 c12 -1 25 5 28 13 3 8 12 12 20 9 19 -7 -1 -33
-27 -33 -10 0 -20 -4 -23 -9 -3 -5 -16 -7 -29 -4 -21 4 -20 3 6 -21 15 -14 43
-28 62 -32 20 -3 35 -12 35 -20 0 -8 6 -11 15 -8 8 4 15 10 15 16 0 5 -5 6
-12 2 -7 -5 -8 -3 -3 6 5 9 14 5 31 -14 23 -24 33 -53 15 -42 -6 4 -8 -31 -6
-84 1 -49 -1 -90 -4 -90 -29 0 -41 72 -21 126 9 24 9 25 -5 14 -8 -7 -15 -19
-15 -27 0 -8 -4 -12 -8 -9 -5 3 -22 2 -38 -3 l-29 -8 32 -7 c38 -9 49 -22 34
-40 -6 -7 -8 -16 -4 -20 4 -4 -3 -16 -17 -28 -16 -12 -19 -18 -8 -14 10 3 20
1 24 -5 3 -6 12 -8 20 -5 23 9 44 -5 44 -28 1 -11 7 -34 14 -51 l14 -30 -2 34
c-1 27 3 34 20 37 18 3 23 -2 26 -26 4 -30 -6 -42 -15 -17 -2 6 -7 9 -11 6 -4
-4 5 -27 19 -53 14 -25 23 -46 20 -46 -14 0 -45 22 -41 28 2 4 -11 8 -30 9
-39 3 -47 -14 -9 -19 14 -2 26 -7 27 -13 0 -5 4 -20 9 -32 5 -13 5 -23 0 -23
-5 0 -12 11 -15 25 -6 22 -11 25 -44 22 -20 -1 -40 -6 -44 -12 -5 -6 -12 -5
-20 3 -16 16 -31 16 -25 0 2 -7 10 -13 18 -13 10 0 14 -14 16 -45 2 -59 -7
-120 -18 -120 -5 0 -8 3 -8 8 1 4 0 9 -1 12 -1 3 -7 29 -13 59 -20 92 -35 75
-39 -41 -2 -57 -2 -105 0 -108 2 -3 9 3 16 13 7 9 16 17 20 17 7 0 4 -30 -5
-45 -3 -5 -5 -23 -4 -40 3 -37 -3 -49 -19 -36 -8 7 -12 5 -12 -9 0 -10 4 -16
8 -14 5 3 -1 -13 -13 -35 -24 -46 -34 -53 -25 -16 5 19 2 25 -9 25 -12 0 -14
-6 -9 -27 6 -22 4 -25 -11 -20 -13 5 -16 3 -12 -8 4 -8 2 -17 -3 -20 -15 -9
-12 -65 5 -81 10 -10 15 -35 15 -70 0 -50 -11 -71 -24 -41 -2 6 -4 3 -4 -8 3
-58 -3 -125 -11 -125 -12 0 -20 70 -23 185 -1 50 -7 93 -13 97 -6 5 -6 8 3 8
17 0 15 55 -3 73 -27 28 -20 118 8 100 17 -10 47 -11 41 -1 -3 4 -1 8 5 8 6 0
22 25 36 56 25 54 26 62 19 168 -6 94 -11 117 -17 79 -1 -10 -65 -71 -94 -90
-16 -11 -27 -12 -40 -4 -16 9 -15 10 8 11 15 0 32 7 39 16 8 8 9 14 4 12 -5
-2 -11 1 -14 7 -3 5 8 9 25 10 26 0 32 5 45 43 9 26 19 41 27 38 7 -3 15 -1
18 4 4 6 1 10 -4 10 -6 0 -11 7 -11 16 0 8 4 13 9 10 18 -11 -14 68 -36 90
-13 13 -23 31 -24 41 -1 12 -3 10 -8 -6 -12 -43 -32 -38 -27 6 2 21 5 46 5 56
1 10 6 15 11 12 6 -4 8 -12 4 -18 -3 -7 3 -1 14 13 19 23 19 26 5 42 -9 10
-23 18 -31 18 -20 0 -41 30 -42 60 -1 35 -14 52 -51 64 -18 6 -37 20 -43 31
-6 10 -17 26 -24 33 -7 8 -11 21 -8 28 3 8 1 14 -4 14 -5 0 -9 8 -9 18 0 9 -3
29 -7 44 -4 19 0 36 16 57 12 17 18 31 14 31 -4 0 -12 -7 -19 -16 -11 -16 -12
-16 -18 0 -4 10 -3 15 3 11 6 -3 7 1 4 10 -4 9 -11 12 -18 7 -16 -12 -23 -10
-106 32 -101 52 -210 130 -187 134 22 4 22 11 0 27 -14 11 -15 15 -4 29 7 8
14 34 15 57 2 31 -3 44 -18 55 -18 12 -18 14 -3 14 16 0 16 1 1 26 l-17 26 39
-8 c21 -3 44 -10 49 -14z m415 -812 c0 -5 -4 -6 -10 -3 -6 3 -10 -4 -10 -17 0
-13 -11 -44 -25 -70 -15 -29 -21 -49 -15 -53 6 -4 9 -3 8 2 -1 4 10 31 25 58
32 62 35 46 4 -26 -26 -58 -27 -91 -8 -128 11 -19 11 -25 0 -32 -7 -4 -17 -6
-21 -3 -14 9 -56 -26 -62 -52 -4 -13 -11 -24 -16 -24 -6 0 -10 -8 -10 -18 0
-10 -5 -23 -12 -30 -8 -8 -8 -15 2 -27 7 -8 10 -26 8 -40 -3 -14 -1 -28 3 -31
15 -9 10 -21 -17 -39 -30 -19 -44 -9 -44 31 0 12 -7 27 -15 34 -8 7 -15 23
-15 36 0 13 -4 24 -10 24 -5 0 -10 -8 -10 -17 0 -13 -3 -14 -11 -6 -9 9 -7 33
6 98 15 69 24 91 46 109 19 16 24 27 18 37 -21 33 -9 70 35 114 42 43 77 64
42 26 -9 -10 -19 -36 -21 -57 -2 -22 -2 -31 1 -21 3 9 10 17 15 17 5 0 9 5 9
10 0 6 21 30 46 55 33 31 45 49 40 61 -5 14 -4 15 9 4 8 -7 15 -17 15 -22z
m525 -318 c-3 -5 1 -10 9 -10 15 0 20 -14 19 -47 -1 -7 3 -11 7 -8 17 11 20
-15 6 -49 l-15 -35 34 -11 c21 -7 32 -17 31 -28 0 -9 6 -17 14 -17 8 -1 14 -7
12 -13 -1 -7 2 -21 8 -31 8 -15 6 -20 -10 -24 -20 -5 -28 -27 -10 -27 14 0 12
-37 -2 -47 -9 -5 -3 -9 16 -13 16 -3 31 -11 34 -19 3 -8 0 -11 -7 -7 -6 4 -11
1 -11 -9 0 -12 -6 -10 -27 10 -15 14 -32 25 -38 25 -5 -1 2 -11 16 -23 15 -12
30 -33 34 -47 6 -20 5 -23 -6 -13 -9 9 -16 10 -26 2 -10 -9 -13 -8 -13 1 0 8
-3 11 -6 7 -3 -3 2 -19 12 -36 13 -22 15 -34 8 -41 -8 -8 -15 -2 -24 19 -7 17
-17 31 -22 31 -5 0 -6 5 -3 10 3 6 0 10 -7 10 -9 0 -9 3 2 10 10 6 11 10 3 10
-7 0 -25 24 -39 53 -21 39 -28 68 -28 114 -1 44 -4 59 -12 52 -8 -6 -13 -3
-17 11 -4 18 -2 20 16 14 12 -4 24 -10 27 -15 3 -4 14 -6 25 -4 11 2 27 4 35
4 11 1 11 4 2 13 -10 10 -15 10 -20 1 -12 -19 -88 19 -95 48 -15 54 -2 64 33
27 25 -27 17 -38 -10 -13 -11 10 -20 13 -20 7 0 -7 5 -12 11 -12 6 0 9 -7 5
-15 -4 -12 0 -14 20 -9 18 5 24 3 22 -7 -2 -7 6 -15 16 -17 19 -4 19 -3 3 22
-9 14 -17 29 -17 33 0 4 5 1 10 -7 7 -11 10 -5 10 23 0 51 -1 52 -37 49 -18
-2 -38 0 -45 5 -7 4 -15 8 -18 8 -12 1 -44 24 -33 25 6 0 14 -4 18 -10 7 -11
55 8 55 22 0 4 12 8 26 8 14 0 23 -4 19 -10z m-660 -310 c-3 -5 -1 -10 4 -10
6 0 11 5 11 12 0 6 2 9 5 6 3 -3 1 -17 -6 -31 -10 -21 -8 -28 10 -46 12 -12
19 -27 15 -33 -4 -6 -1 -9 7 -6 8 3 13 15 12 27 -2 14 1 20 8 16 13 -9 8 27
-6 37 -6 4 -2 8 8 8 10 0 15 5 12 10 -3 6 -1 10 5 10 6 0 15 -12 21 -27 8 -22
7 -34 -5 -55 -16 -26 -13 -50 9 -78 16 -20 15 -50 -2 -50 -7 0 -16 0 -20 -1
-4 0 -9 5 -12 12 -2 8 2 10 13 6 23 -9 20 0 -5 14 -15 8 -19 8 -15 0 4 -6 2
-11 -3 -11 -6 0 -11 6 -11 13 0 8 -3 8 -9 -2 -5 -8 -16 -11 -26 -7 -9 3 -25 1
-36 -4 -15 -8 -22 -6 -35 9 -20 23 -24 89 -6 96 7 2 11 8 11 12 -4 16 14 43
28 43 8 0 11 5 8 10 -6 10 1 30 11 30 3 0 2 -4 -1 -10z"/>
</g>
</svg>
