<?xml version="1.0" standalone="no"?>
<!DOCTYPE svg PUBLIC "-//W3C//DTD SVG 20010904//EN"
 "http://www.w3.org/TR/2001/REC-SVG-20010904/DTD/svg10.dtd">
<svg version="1.0" xmlns="http://www.w3.org/2000/svg"
 width="1920.000000pt" height="1080.000000pt" viewBox="0 0 1920.000000 1080.000000"
 preserveAspectRatio="xMidYMid meet">
<metadata>
Created by potrace 1.16, written by Peter Selinger 2001-2019
</metadata>
<g transform="translate(0.000000,1080.000000) scale(0.100000,-0.100000)"
fill="#000000" stroke="none">
<path d="M10000 10788 c0 -6 -11 -26 -26 -45 -23 -30 -30 -33 -79 -33 -30 0
-57 -5 -60 -10 -4 -6 -16 -8 -27 -5 -15 5 -21 1 -26 -17 l-6 -23 -7 25 c-6 22
-7 23 -8 4 -1 -27 -26 -48 -46 -40 -10 3 -15 -1 -16 -12 0 -10 -3 -12 -6 -4
-6 16 -23 6 -23 -14 0 -8 4 -13 9 -10 5 3 12 -1 15 -10 4 -11 -1 -18 -14 -21
-11 -3 -20 -9 -20 -14 0 -5 -5 -9 -12 -9 -9 0 -9 3 0 12 19 19 14 29 -13 22
-15 -4 -25 -2 -25 5 0 6 5 11 10 11 6 0 10 7 10 15 0 8 -7 15 -15 15 -8 0 -15
9 -15 19 0 14 -5 18 -19 14 -10 -3 -31 3 -45 12 -20 14 -26 14 -26 4 -1 -9 -6
-7 -16 6 -12 17 -16 18 -24 5 -8 -12 -10 -12 -15 3 -6 15 -8 15 -23 1 -10 -10
-25 -14 -43 -10 -22 4 -31 1 -40 -15 -8 -16 -14 -18 -22 -10 -14 14 -47 14
-47 1 0 -5 -7 -10 -15 -10 -15 0 -17 -5 -19 -45 -1 -11 -17 -30 -39 -45 -21
-13 -34 -26 -28 -28 6 -2 11 -7 11 -12 0 -4 -29 -7 -65 -5 -36 1 -65 -1 -65
-5 0 -4 26 -12 58 -17 l57 -11 -55 0 c-104 1 -137 -3 -115 -12 17 -6 14 -9
-18 -15 -21 -4 -42 -16 -48 -26 -5 -11 -17 -19 -26 -19 -13 0 -13 -3 -3 -15
11 -13 8 -15 -16 -11 -16 2 -38 7 -48 11 -14 6 -24 2 -37 -13 -18 -23 -39 -29
-39 -12 0 5 8 13 17 19 15 8 14 11 -12 17 -17 5 -36 7 -42 6 -7 -2 -13 4 -13
12 0 11 -13 14 -57 12 -63 -3 -103 9 -103 31 0 20 -38 -6 -42 -30 -4 -26 -21
-24 -35 4 -12 22 -13 22 -14 4 0 -13 -5 -8 -13 15 -7 19 -16 34 -19 33 -4 -2
-14 -3 -22 -3 -8 0 -15 -8 -16 -17 0 -11 -3 -13 -6 -5 -2 6 -12 12 -20 12 -10
0 -13 -6 -9 -16 3 -9 9 -27 12 -40 5 -19 11 -23 25 -19 14 5 19 1 19 -14 0
-37 -11 -51 -41 -51 -32 0 -40 -16 -11 -23 10 -3 5 -5 -12 -6 -32 -1 -105 -66
-83 -74 7 -2 3 -8 -11 -16 -12 -6 -22 -18 -22 -26 0 -7 -9 -17 -20 -20 -12 -4
-20 -15 -20 -28 -1 -21 -2 -20 -15 5 -17 31 -56 29 -48 -3 7 -24 20 -25 26 -1
3 11 5 8 6 -9 1 -23 -2 -26 -23 -22 -23 5 -25 2 -28 -38 -3 -39 -5 -41 -14
-22 -9 22 -10 22 -22 3 -7 -12 -8 -20 -2 -20 5 0 10 -7 10 -16 0 -8 -4 -12
-10 -9 -5 3 -10 1 -10 -4 0 -6 -5 -11 -11 -11 -6 0 -17 -7 -25 -15 -21 -21
-34 -19 -34 5 0 15 7 20 25 20 19 0 25 5 25 23 0 13 -3 17 -8 11 -4 -7 -16
-13 -27 -15 -12 -3 -24 -17 -31 -39 -10 -30 -16 -35 -45 -36 -19 -1 -41 -5
-50 -8 -12 -6 -18 1 -23 25 -3 17 -6 37 -6 44 0 19 39 26 48 8 6 -10 17 -12
35 -8 34 9 34 22 2 37 -29 13 -31 21 -10 38 19 16 19 30 0 30 -15 0 -38 -34
-29 -43 3 -3 3 -11 -1 -17 -4 -7 -13 1 -23 21 -10 18 -21 31 -25 30 -4 -1 -17
8 -27 21 -17 19 -21 21 -29 8 -6 -8 -14 -11 -18 -6 -4 5 -3 11 4 13 9 3 9 10
1 29 -9 19 -8 28 7 44 16 18 16 20 1 26 -9 3 -23 3 -32 0 -8 -3 -12 -2 -9 4 3
5 -4 14 -15 20 -11 6 -20 18 -20 26 0 22 -23 12 -36 -15 -6 -12 -15 -23 -20
-24 -5 -1 -8 -11 -6 -22 1 -11 -5 -25 -14 -32 -10 -7 -19 -27 -21 -45 -2 -18
-8 -45 -14 -60 -6 -14 -9 -37 -7 -50 2 -12 -3 -28 -11 -34 -11 -8 -11 -15 -2
-33 9 -16 9 -26 2 -35 -6 -7 -7 -17 -2 -22 5 -5 12 -22 15 -38 6 -26 5 -28 -8
-17 -21 17 -34 7 -29 -23 5 -25 -18 -70 -51 -97 -13 -10 -16 -20 -11 -30 5 -7
11 -31 13 -53 3 -31 0 -38 -12 -33 -8 3 -18 2 -21 -3 -4 -6 -15 -10 -26 -10
-10 0 -19 -5 -19 -11 0 -7 10 -9 25 -7 13 3 22 1 19 -3 -3 -5 -1 -9 4 -9 5 0
13 -17 18 -37 8 -35 12 -38 42 -37 21 1 32 -3 32 -12 0 -8 -4 -14 -10 -14 -5
0 -10 -8 -10 -18 0 -20 -53 -47 -76 -38 -11 4 -14 14 -11 27 5 19 2 21 -23 15
-16 -3 -31 -2 -34 3 -10 15 31 39 60 35 24 -4 26 -3 9 5 -11 5 -33 10 -49 10
-24 1 -27 3 -16 16 16 19 -2 20 -30 3 -10 -7 -23 -9 -27 -5 -4 5 -1 12 6 16 9
6 10 11 2 15 -18 11 -13 26 7 19 10 -4 14 -2 9 3 -5 5 -27 9 -50 10 l-42 0 33
-13 c34 -14 44 -36 15 -31 -12 2 -19 -4 -21 -19 -2 -12 -11 -23 -20 -25 -16
-3 -15 -4 1 -11 11 -4 24 0 35 11 15 15 23 16 46 7 21 -9 24 -14 13 -18 -10
-3 -13 -14 -10 -31 4 -19 11 -26 29 -26 13 0 24 5 24 11 0 5 5 7 10 4 6 -4 8
-10 5 -15 -3 -4 1 -10 7 -13 8 -3 3 -9 -12 -15 -24 -10 -24 -11 -3 -11 30 -1
40 -21 13 -28 -13 -3 -19 -11 -16 -19 3 -8 2 -14 -3 -14 -4 0 -13 -12 -19 -26
-9 -19 -17 -24 -32 -19 -15 5 -18 3 -14 -9 4 -11 1 -16 -10 -16 -14 0 -15 -4
-5 -21 8 -15 8 -24 0 -32 -8 -8 -16 1 -28 31 -9 23 -19 42 -22 42 -17 -1 -26
-18 -26 -50 0 -27 -5 -36 -20 -38 -16 -3 -18 -1 -7 9 6 7 12 19 12 26 0 21
-21 15 -27 -7 -6 -22 -30 -27 -35 -7 -2 9 -11 11 -28 6 -24 -7 -24 -7 -2 -8
23 -1 32 -21 8 -21 -7 0 -19 -7 -26 -15 -19 -23 -31 -18 -26 10 5 26 0 30 -21
17 -14 -9 -33 -56 -33 -83 0 -25 17 -25 25 1 3 11 13 20 22 20 10 0 13 -6 9
-16 -3 -9 -6 -20 -6 -25 0 -6 -4 -8 -9 -5 -12 8 -22 -21 -16 -47 7 -28 -2 -39
-43 -54 -36 -13 -86 1 -88 25 -1 6 -2 21 -2 32 -1 12 -9 20 -19 20 -10 0 -25
5 -33 10 -13 8 -13 11 -1 19 9 6 11 18 7 35 -7 27 -36 37 -36 12 0 -26 -17
-26 -44 -1 l-27 25 30 6 c17 4 31 13 31 20 0 8 5 14 10 14 6 0 10 -7 10 -15 0
-8 7 -15 16 -15 9 0 22 -7 28 -14 6 -8 17 -16 25 -18 20 -4 23 108 4 124 -7 6
-13 21 -13 34 0 18 -6 24 -22 24 -27 0 -43 10 -51 30 -4 12 -6 11 -6 -2 -1
-10 -6 -18 -12 -18 -8 0 -8 -5 1 -15 7 -8 23 -15 36 -15 13 0 24 -4 24 -10 0
-5 -8 -10 -18 -10 -24 0 -82 29 -82 41 0 5 -8 9 -17 8 -11 0 -13 -3 -5 -6 24
-10 6 -43 -24 -43 -10 0 -30 57 -26 75 4 19 3 19 -14 4 -37 -32 -81 -36 -76
-6 2 10 -3 17 -12 17 -19 0 -21 16 -3 23 6 2 8 8 4 13 -4 5 -11 3 -15 -3 -9
-15 -91 -20 -100 -6 -10 16 -67 19 -85 4 -17 -13 -41 -6 -32 10 4 5 -5 9 -19
9 -18 0 -26 5 -26 17 0 9 -5 32 -12 50 -11 31 -15 33 -45 28 -17 -2 -35 0 -38
6 -8 11 13 41 24 35 4 -3 13 -1 20 3 9 6 0 11 -26 16 -21 4 -44 11 -50 17 -10
8 -13 6 -13 -5 0 -8 5 -17 12 -19 7 -3 5 -7 -6 -11 -10 -4 -15 -3 -11 3 3 6 1
10 -4 10 -6 0 -11 6 -11 14 0 7 -7 19 -15 26 -23 19 -18 38 13 43 26 4 26 4
-5 6 -17 0 -33 6 -35 13 -3 7 -11 5 -26 -7 -16 -14 -20 -26 -15 -44 5 -21 3
-24 -8 -13 -19 18 -37 15 -44 -9 -6 -19 -8 -19 -24 -5 -26 24 -44 21 -29 -4 7
-11 18 -20 24 -20 7 0 14 -7 18 -15 3 -9 0 -15 -10 -15 -8 0 -25 -5 -36 -11
-15 -8 -17 -13 -8 -19 20 -12 2 -30 -28 -26 -15 2 -21 1 -14 -1 7 -3 11 -10 9
-16 -5 -17 -45 -21 -63 -7 -11 10 -14 9 -14 -9 0 -14 6 -21 18 -21 24 0 59
-26 49 -36 -4 -4 -13 -2 -19 4 -22 22 -39 14 -32 -14 5 -20 4 -25 -5 -19 -8 4
-14 -1 -18 -14 -3 -12 -12 -21 -20 -21 -11 0 -14 7 -10 21 4 17 3 19 -6 10
-17 -17 -52 -13 -72 9 -26 29 -38 25 -30 -10 5 -23 3 -30 -6 -28 -8 2 -15 -7
-17 -19 -3 -18 -10 -23 -33 -23 -26 0 -29 3 -29 33 -1 28 -25 78 -33 66 -16
-24 -29 -60 -22 -66 4 -5 10 -2 12 5 7 19 29 14 30 -8 1 -13 -4 -20 -15 -20
-9 0 -26 -3 -38 -6 -15 -4 -23 1 -32 20 -6 14 -9 33 -6 41 4 8 2 21 -4 28 -14
16 -18 49 -9 64 9 14 -29 43 -55 43 -23 0 -23 26 0 35 16 6 16 7 -1 16 -9 6
-15 14 -12 20 6 8 -31 14 -62 10 -7 -1 -13 7 -13 19 0 12 -7 20 -16 20 -12 0
-15 -6 -11 -21 5 -19 3 -20 -30 -14 l-35 6 4 -37 c4 -43 -18 -59 -28 -20 -3
14 -10 23 -16 20 -5 -3 -7 -13 -4 -21 9 -22 -4 -63 -20 -63 -16 0 -19 26 -4
35 6 4 8 11 4 16 -7 13 -104 5 -113 -8 -10 -16 -35 -21 -59 -11 -31 11 -25
-12 6 -28 l22 -11 -23 -10 c-13 -6 -30 -8 -37 -3 -7 4 -24 1 -40 -8 -25 -15
-30 -15 -53 1 -33 21 -47 22 -47 1 0 -11 6 -14 20 -9 11 4 20 2 20 -4 0 -6 -9
-11 -19 -11 -16 0 -20 -8 -23 -42 l-3 -43 -11 45 c-10 46 -28 57 -30 17 -2
-38 -6 -43 -13 -17 -5 18 -14 24 -29 23 -15 -2 -22 3 -23 15 0 10 -3 12 -6 5
-2 -7 -11 -13 -19 -13 -9 0 -13 3 -11 8 3 4 1 16 -2 26 -8 21 26 66 50 66 10
0 10 3 1 12 -9 9 -15 8 -26 -7 -12 -16 -16 -17 -30 -6 -9 8 -15 21 -14 30 2
10 -5 16 -20 17 -13 1 -28 6 -35 13 -16 16 -37 14 -31 -4 5 -11 2 -13 -10 -9
-19 7 -21 30 -3 37 6 2 9 8 5 12 -4 4 -14 0 -23 -9 -9 -9 -27 -16 -40 -16 -30
0 -59 -38 -43 -57 8 -10 4 -13 -18 -13 -22 0 -25 -3 -16 -12 7 -7 12 -16 12
-20 0 -15 -29 -8 -38 8 -11 20 -25 3 -16 -20 4 -11 13 -14 25 -11 11 4 29 3
40 0 21 -7 21 -8 -7 -30 -24 -19 -30 -20 -42 -9 -20 21 -34 17 -22 -6 14 -26
8 -82 -10 -97 -13 -11 -13 -12 3 -13 35 0 16 -20 -21 -20 -21 0 -43 -5 -49
-11 -16 -16 -35 -1 -28 21 3 11 0 20 -10 24 -8 3 -15 11 -15 19 0 7 -5 18 -12
25 -9 9 -15 7 -25 -6 -12 -15 -14 -11 -10 36 4 54 -3 64 -25 34 -21 -29 -40
-37 -36 -16 2 13 -4 20 -18 22 -16 2 -20 8 -17 23 4 14 0 19 -16 19 -14 0 -21
6 -21 20 0 13 -9 22 -25 26 -15 4 -25 13 -25 25 0 10 -8 23 -17 28 -14 8 -15
10 -3 11 13 0 13 1 0 10 -9 5 -19 5 -27 -2 -10 -8 -13 -6 -13 6 0 19 -16 21
-26 4 -5 -8 -10 -7 -18 4 -11 15 -55 29 -93 30 -13 0 -23 4 -23 9 0 5 -10 8
-21 6 -12 -1 -24 4 -26 11 -3 7 4 12 16 12 18 0 20 3 9 19 -7 12 -22 19 -37
18 -19 -2 -26 3 -25 16 1 9 -2 17 -7 17 -5 0 -9 8 -9 17 0 15 -2 14 -14 -2 -8
-11 -12 -24 -8 -30 3 -5 -7 3 -21 18 -15 15 -27 39 -27 53 0 26 -27 33 -47 13
-9 -9 -19 -8 -38 5 -17 11 -36 15 -51 12 -22 -6 -25 -4 -22 21 2 19 -2 28 -14
31 -13 2 -16 -1 -12 -12 5 -13 -1 -16 -30 -16 -27 0 -34 3 -30 15 5 11 -1 15
-21 15 -24 0 -26 3 -21 28 5 23 0 31 -29 52 -26 19 -34 30 -30 46 4 17 -6 29
-47 57 -35 25 -55 33 -63 27 -7 -6 -24 -6 -46 0 -47 14 -59 13 -59 -5 0 -8
-10 -16 -22 -16 -13 -1 -31 -2 -41 -3 -22 -1 -37 -23 -37 -54 0 -13 -4 -20
-10 -17 -5 3 -10 15 -10 26 0 10 -4 19 -10 19 -5 0 -7 -6 -4 -13 3 -9 -12 -18
-48 -27 -46 -12 -50 -14 -28 -20 25 -6 25 -6 2 -12 -25 -7 -42 15 -42 56 0 14
-4 28 -10 31 -5 3 -10 0 -10 -7 0 -9 -3 -9 -10 2 -8 13 -10 12 -10 -2 0 -20
-8 -22 -29 -9 -18 11 -5 31 20 31 10 0 19 4 19 9 0 11 -29 23 -40 16 -4 -2
-15 4 -25 15 -10 11 -29 20 -42 20 -27 0 -40 24 -24 44 12 15 5 46 -11 46 -5
0 -24 16 -42 35 -25 26 -38 33 -56 28 -17 -4 -21 -2 -18 8 3 8 11 13 17 11 15
-3 3 48 -16 68 -12 13 -15 13 -24 0 -8 -11 -9 -9 -4 9 6 20 4 23 -9 18 -9 -4
-26 -1 -37 6 -16 10 -21 9 -29 -3 -6 -9 -5 -17 3 -22 7 -5 1 -8 -15 -8 -22 0
-25 4 -21 23 4 20 3 21 -10 5 -19 -24 -31 -23 -24 2 6 24 -11 27 -20 4 -4 -11
2 -23 17 -34 16 -12 19 -19 11 -24 -7 -4 -18 -3 -25 3 -10 9 -17 8 -28 -2 -7
-8 -30 -22 -51 -32 -34 -16 -51 -45 -27 -45 6 0 10 -7 10 -16 0 -12 -6 -15
-25 -10 -19 5 -27 1 -36 -16 -7 -13 -12 -24 -11 -25 9 -14 -2 -23 -19 -18 -20
7 -21 5 -15 -26 3 -19 11 -35 16 -37 20 -7 10 -23 -10 -17 -13 4 -22 1 -26 -9
-4 -11 -14 -13 -35 -9 -36 7 -40 -16 -7 -46 17 -17 19 -23 8 -36 -11 -14 -14
-13 -26 2 -19 25 -17 7 2 -23 15 -22 15 -26 2 -42 -17 -19 -20 -51 -7 -68 10
-12 6 -155 -5 -172 -5 -9 -15 -8 -37 3 -25 13 -29 13 -29 1 0 -8 3 -16 8 -19
4 -2 2 -2 -5 -1 -15 4 -29 -16 -17 -25 5 -3 10 -18 12 -33 l3 -28 -36 21 c-20
12 -38 19 -42 16 -3 -4 -6 -24 -7 -47 -1 -34 -4 -40 -22 -40 -28 0 -46 -21
-34 -40 8 -13 11 -12 23 4 14 19 48 19 54 -1 3 -7 -9 -13 -28 -15 -26 -2 -35
-9 -39 -28 -9 -37 -54 -35 -58 3 -2 19 -9 27 -23 27 -10 0 -19 6 -20 13 0 6
-4 3 -9 -8 -5 -11 -9 -14 -9 -7 -1 6 -10 12 -21 12 -11 0 -20 5 -20 10 0 6 8
10 18 8 11 -2 18 4 20 20 2 12 -1 22 -7 22 -6 0 -11 -7 -11 -15 0 -23 -17 -18
-24 8 -6 19 -8 20 -19 6 -10 -13 -17 -14 -41 -4 -19 8 -24 14 -15 17 10 4 8
10 -11 26 -14 11 -27 17 -30 12 -6 -9 -70 -1 -70 9 0 4 -11 8 -24 9 -16 1 -25
-5 -29 -18 -6 -22 -41 -27 -53 -8 -5 8 0 9 14 6 32 -9 27 15 -5 29 -39 16 -83
14 -76 -3 7 -18 -8 -18 -33 1 -27 21 -43 19 -37 -5 5 -20 -8 -25 -57 -22 -8 0
-18 -4 -22 -11 -5 -8 -17 -5 -42 8 -30 16 -37 17 -51 5 -15 -12 -19 -12 -31 5
-14 18 -14 18 -14 -3 0 -19 -6 -22 -35 -22 -22 0 -38 6 -41 15 -7 18 -34 20
-34 2 0 -7 5 -18 12 -25 8 -8 9 -12 1 -12 -6 0 -14 6 -17 13 -3 8 -9 7 -20 -6
-10 -13 -21 -17 -35 -12 -12 4 -21 2 -21 -4 0 -19 -18 -12 -25 9 -7 23 -25 27
-25 5 0 -8 -4 -15 -10 -15 -5 0 -10 5 -10 11 0 6 -8 8 -19 4 -15 -4 -20 0 -23
16 -4 26 -42 34 -63 12 -15 -14 -55 -18 -55 -5 0 4 6 14 13 21 10 10 9 12 -3
10 -8 -2 -27 5 -43 15 -22 15 -25 21 -16 33 10 11 8 15 -9 20 -16 4 -22 13
-22 32 -1 24 -2 25 -14 8 -20 -26 -66 -7 -66 28 0 14 -4 25 -10 25 -5 0 -10
-6 -10 -14 0 -21 -52 -15 -72 9 -10 12 -17 15 -18 8 0 -7 -6 -13 -14 -13 -15
0 -29 -29 -24 -51 2 -9 -11 -16 -37 -20 -32 -5 -36 -8 -20 -13 15 -5 21 -17
23 -39 1 -26 0 -29 -9 -14 -5 9 -19 17 -29 17 -13 0 -20 7 -20 20 0 21 -24 28
-35 10 -3 -5 -17 -10 -30 -10 -13 0 -27 -5 -30 -10 -9 -15 23 -24 39 -11 13
11 26 5 26 -11 0 -9 -83 -11 -92 -2 -12 11 5 44 23 44 11 0 19 3 19 8 0 12
-64 6 -68 -6 -6 -18 -62 -15 -68 3 -9 22 -60 19 -84 -5 -20 -20 -20 -33 -20
-3974 0 -3154 3 -3955 13 -3959 9 -4 9 -6 0 -6 -8 -1 -13 -14 -13 -31 0 -17 5
-30 13 -30 9 0 9 -2 -1 -8 -9 -6 -12 -35 -11 -99 1 -84 3 -92 23 -98 l21 -6
-22 -11 -22 -11 -1 -743 0 -744 5812 0 c3197 0 5823 3 5835 6 13 4 20 10 17
15 -3 5 0 9 5 9 6 0 11 -7 11 -15 0 -13 424 -15 3760 -15 l3760 0 0 5400 0
5401 -212 -2 c-117 0 -218 -5 -225 -10 -7 -7 -14 -6 -18 1 -9 14 -2945 14
-2945 0 0 -5 7 -10 15 -10 8 0 24 -9 34 -19 14 -14 22 -16 30 -8 18 18 25 -1
11 -29 -11 -20 -20 -25 -41 -20 -15 3 -34 -1 -44 -8 -16 -12 -16 -13 -1 -19
21 -8 21 -24 -1 -30 -17 -4 -17 -5 0 -6 21 -1 22 -14 2 -31 -12 -10 -18 -10
-31 1 -9 8 -27 12 -40 11 -13 -2 -24 1 -24 6 0 5 -12 9 -27 9 -118 2 -163 12
-163 39 0 16 19 15 64 -2 12 -5 15 0 14 18 -2 21 -6 23 -49 21 -36 -1 -52 3
-65 18 -16 17 -16 22 -4 29 20 13 57 12 65 0 8 -12 25 -13 44 -1 12 8 12 12
-3 26 -13 14 -22 15 -48 6 -17 -6 -40 -11 -52 -10 -21 0 -21 1 -1 9 11 5 -422
9 -1001 9 -900 1 -1023 -1 -1028 -14 -3 -8 -14 -15 -24 -15 -11 0 -25 7 -32
15 -18 22 -47 18 -54 -7 -6 -22 -7 -22 -20 -4 -20 25 -34 13 -30 -26 1 -18 3
-38 3 -43 1 -6 22 -17 48 -23 34 -9 43 -16 33 -22 -18 -11 -22 -42 -7 -52 8
-5 5 -10 -10 -14 -16 -4 -23 -14 -23 -31 0 -17 -5 -23 -16 -21 -10 2 -19 -3
-21 -9 -3 -8 4 -13 19 -13 13 0 30 -5 38 -10 13 -8 12 -11 -7 -16 -35 -10 -35
-62 1 -86 5 -4 -2 -10 -17 -13 -15 -4 -27 -12 -27 -17 0 -6 7 -7 16 -4 21 8
65 -4 58 -16 -3 -5 -12 -7 -20 -4 -7 3 -22 -6 -33 -20 -19 -24 -22 -25 -36
-10 -13 12 -21 13 -41 4 -17 -8 -21 -15 -14 -22 18 -18 11 -27 -15 -20 -15 4
-25 2 -25 -5 0 -6 9 -11 20 -11 11 0 20 -7 20 -15 0 -17 -16 -20 -25 -5 -3 5
-12 7 -19 4 -8 -3 -17 -1 -21 5 -10 17 -25 13 -26 -6 0 -12 -5 -8 -14 12 -8
17 -14 25 -15 18 0 -7 -7 -10 -15 -7 -21 8 -38 -5 -26 -20 8 -9 6 -18 -3 -32
-12 -16 -12 -21 -1 -34 7 -8 15 -28 17 -45 2 -23 -1 -30 -17 -33 -11 -3 -23
-9 -27 -16 -4 -6 -8 3 -8 21 0 19 -7 36 -17 43 -17 11 -17 11 0 6 24 -7 23 38
-1 64 -19 21 -64 22 -84 2 -7 -7 -21 -12 -32 -12 -12 0 -30 -7 -40 -15 -29
-22 -36 -19 -36 14 0 30 -21 56 -35 43 -4 -4 -6 10 -3 31 2 20 1 37 -3 37 -7
0 -31 55 -33 75 -1 6 -14 11 -31 13 -16 2 -34 8 -40 13 -9 9 -55 -35 -55 -54
0 -5 -8 -15 -17 -22 -14 -10 -15 -16 -5 -28 10 -12 8 -13 -15 -9 -28 5 -28 5
-10 -16 17 -19 18 -22 2 -45 -9 -14 -27 -33 -41 -42 -13 -8 -24 -24 -24 -35 0
-11 -4 -20 -10 -20 -5 0 -10 9 -10 20 0 11 5 20 12 20 9 0 9 3 0 12 -9 9 -15
9 -24 0 -7 -7 -29 -12 -51 -12 -21 0 -47 -5 -58 -11 -15 -8 -24 -7 -35 2 -14
11 -13 14 1 21 8 5 24 7 34 3 10 -3 24 1 31 10 10 13 9 15 -7 15 -11 0 -34 7
-52 16 -32 16 -67 12 -56 -6 3 -5 -2 -10 -11 -10 -10 0 -26 -7 -36 -16 -15
-15 -23 -15 -63 -4 -32 9 -42 16 -33 21 8 6 -3 9 -30 9 -24 0 -41 -4 -38 -9 3
-5 -1 -12 -10 -15 -23 -9 -24 -8 -24 14 0 11 -4 20 -10 20 -5 0 -10 -8 -10
-18 0 -10 -14 -29 -31 -41 -27 -20 -34 -22 -55 -10 -13 7 -24 18 -24 24 0 9
-10 8 -35 -3 -19 -9 -35 -20 -35 -24 0 -5 -10 -12 -21 -16 -20 -8 -20 -10 -5
-24 24 -24 20 -30 -14 -23 -23 5 -30 3 -30 -9 0 -8 -8 -20 -17 -25 -10 -6 -14
-11 -9 -11 5 0 2 -7 -5 -17 -11 -13 -11 -17 -1 -20 19 -7 14 -21 -9 -28 -17
-6 -19 -9 -8 -16 10 -6 8 -9 -8 -9 -13 0 -23 -5 -23 -11 0 -5 8 -9 18 -8 34 3
48 -1 34 -9 -7 -5 -37 -7 -68 -6 -47 3 -54 0 -52 -14 2 -13 -4 -17 -29 -17
-19 0 -34 -5 -34 -12 -2 -22 -4 -28 -12 -40 -6 -9 -2 -13 12 -13 15 0 19 5 14
16 -4 12 -1 15 13 12 11 -2 20 -13 22 -26 2 -14 10 -22 23 -22 15 0 20 -6 17
-22 -2 -18 -10 -22 -38 -23 -20 0 -40 7 -47 15 -10 13 -12 10 -13 -14 0 -23
-3 -27 -12 -18 -7 7 -25 12 -41 12 -23 0 -27 3 -22 19 4 14 -3 23 -35 40 -22
11 -46 18 -55 15 -8 -4 -15 -1 -15 5 0 6 6 11 13 11 6 0 4 5 -6 11 -17 10 -17
12 0 40 18 30 18 31 -10 55 -19 16 -23 24 -13 24 9 0 16 4 16 8 0 18 -13 20
-36 6 -24 -16 -44 -12 -44 10 0 19 -33 46 -56 46 -11 0 -29 6 -40 14 -18 14
-18 15 -1 21 25 10 21 25 -7 25 -13 0 -27 7 -30 16 -4 10 -14 14 -25 11 -12
-3 -22 1 -25 9 -3 8 -1 14 3 14 5 0 7 9 4 20 -4 15 0 20 13 21 22 1 -51 18
-81 18 -15 1 -17 -1 -6 -8 11 -7 8 -10 -9 -16 -17 -5 -27 -3 -35 9 -16 22 -30
20 -54 -6 -22 -23 -20 -24 -36 28 -8 26 -25 5 -19 -25 4 -16 1 -37 -5 -48 -9
-15 -10 -12 -11 21 l0 40 -30 -34 c-34 -38 -37 -55 -15 -76 18 -18 20 -34 4
-34 -6 0 -13 9 -16 20 -5 20 -33 29 -33 10 0 -5 -7 -10 -15 -10 -9 0 -18 -7
-21 -15 -5 -12 -9 -12 -29 3 -17 12 -20 20 -13 30 8 9 5 12 -11 12 -13 0 -21
6 -21 18 0 20 33 52 55 52 18 0 20 17 3 22 -9 3 -9 6 0 12 7 4 12 2 12 -3 0
-19 28 -12 44 11 14 19 16 19 22 5 8 -21 24 -22 24 -2 0 8 -4 15 -9 15 -16 0
-21 45 -6 56 8 6 12 14 9 17 -3 3 -15 -3 -27 -14 -27 -25 -36 -24 -30 2 5 18
3 20 -16 14 -18 -5 -21 -2 -21 19 0 14 6 26 13 27 6 1 1 4 -13 8 -14 4 -27 16
-29 26 -2 11 -11 24 -20 30 -13 8 -11 10 14 16 l30 7 -27 1 c-31 1 -37 15 -12
29 10 5 14 15 10 21 -6 9 -11 9 -22 0 -10 -8 -18 -9 -27 0 -16 13 -27 5 -27
-21 0 -10 -7 -18 -16 -18 -14 0 -14 3 -4 15 11 13 9 20 -14 44 -27 29 -28 29
-47 10 -21 -21 -39 -25 -39 -8 0 6 -9 9 -20 6 -11 -3 -23 -1 -26 4 -3 5 8 9
25 9 16 0 33 5 36 11 11 16 -34 52 -66 53 -23 1 -28 5 -23 19 4 12 0 17 -14
17 -11 0 -22 -4 -24 -8 -1 -5 -20 -12 -40 -15 -29 -4 -38 -2 -38 9 0 8 7 14
15 14 18 0 65 29 65 40 0 12 -70 10 -71 -3 0 -7 -4 -2 -9 11 -5 12 -21 27 -35
32 -14 5 -25 14 -25 20 0 14 -43 6 -48 -10 -3 -9 1 -11 12 -7 21 8 20 1 -3
-22 -35 -35 -83 -3 -61 40 10 18 7 19 -75 19 -58 0 -85 -4 -85 -12z m5740
-273 c0 -8 9 -15 19 -15 24 0 32 -22 14 -35 -20 -15 -6 -45 21 -45 11 0 28 -4
36 -10 12 -7 12 -12 1 -34 -12 -21 -11 -27 3 -41 9 -9 16 -12 16 -8 0 5 6 17
13 27 15 21 45 12 57 -18 7 -17 9 -18 9 -3 1 9 8 17 16 17 13 0 14 -4 5 -21
-9 -15 -8 -24 1 -35 7 -9 8 -14 1 -14 -6 0 -13 4 -17 10 -10 17 -35 -1 -35
-26 0 -13 -4 -24 -10 -24 -5 0 -10 5 -10 10 0 6 -17 10 -37 10 -35 -1 -36 -2
-19 -15 10 -8 15 -19 10 -26 -5 -9 -11 -7 -20 6 -11 14 -16 16 -28 6 -11 -10
-18 -8 -35 10 -12 13 -21 17 -21 11 0 -7 -4 -12 -10 -12 -5 0 -10 6 -10 14 0
21 -38 27 -50 8 -9 -16 -9 -16 -10 -1 0 17 18 37 35 38 14 1 13 23 -2 46 -16
24 -17 39 -2 29 7 -4 9 2 7 17 -2 19 -10 25 -35 27 l-32 3 34 35 c19 19 38 34
44 34 5 0 11 9 14 20 6 23 27 27 27 5z m504 -197 c-3 -4 0 -8 7 -8 7 0 9 -3 5
-7 -4 -5 -9 -6 -10 -3 -2 3 -10 -1 -19 -8 -10 -9 -17 -10 -22 -2 -13 22 -31 8
-43 -33 -16 -53 -8 -80 21 -71 19 6 20 5 5 -10 -21 -21 -68 -21 -68 -1 0 9 -9
15 -23 15 -13 0 -32 6 -42 14 -19 13 -18 15 19 36 26 16 34 25 25 31 -7 4 -17
5 -21 3 -4 -3 -8 0 -8 5 0 6 5 11 11 11 6 0 9 9 6 20 -5 20 -2 21 41 15 26 -3
57 -8 68 -10 16 -4 23 1 28 18 5 18 8 19 15 7 5 -8 7 -18 5 -22z m-472 -602
c3 -5 4 -16 1 -23 -5 -11 -8 -12 -13 -2 -10 15 -40 -11 -40 -35 0 -9 -4 -16
-9 -16 -5 0 -13 -9 -16 -20 -4 -11 -11 -18 -16 -15 -5 4 -9 -1 -9 -9 0 -9 -5
-16 -11 -16 -8 0 -8 -4 0 -14 14 -17 -8 -39 -28 -27 -7 5 -22 6 -32 4 -10 -3
-19 0 -19 6 0 6 14 11 30 11 31 0 39 13 18 27 -16 9 -36 14 -70 15 -23 1 -25
4 -17 19 16 30 11 59 -10 59 -11 0 -22 -6 -24 -12 -3 -8 -6 -6 -6 5 -1 9 4 17
9 17 6 0 11 8 11 18 1 16 2 16 6 0 2 -10 8 -18 13 -18 5 0 14 8 19 18 7 11 13
13 18 6 5 -6 21 -14 36 -18 15 -4 25 -11 22 -15 -3 -5 11 -4 30 2 46 14 45 27
-2 21 -37 -4 -37 -4 7 9 51 15 92 16 102 3z"/>
<path d="M6843 10560 c-28 -23 -29 -33 -3 -25 24 8 26 -1 4 -22 -12 -12 -18
-13 -23 -4 -9 14 -44 3 -38 -13 7 -19 -12 -58 -25 -50 -8 5 -9 2 -5 -10 4 -10
7 -22 7 -27 0 -5 8 -9 18 -9 9 0 23 -10 30 -21 13 -21 13 -21 -34 -14 -40 6
-46 4 -41 -9 3 -8 2 -18 -3 -21 -6 -4 -10 5 -10 19 0 19 -5 26 -20 26 -11 0
-20 5 -20 10 0 6 -15 10 -34 10 -31 0 -33 -2 -28 -26 3 -19 1 -25 -7 -20 -6 4
-11 14 -11 21 0 17 -29 34 -55 32 -10 -1 -24 8 -30 20 -11 21 -11 21 -23 2 -7
-10 -20 -19 -30 -19 -12 -1 -8 -6 11 -16 29 -16 29 -16 10 -37 -16 -18 -18
-26 -9 -42 7 -12 19 -19 32 -17 11 2 28 -6 38 -16 15 -18 15 -21 1 -35 -20
-20 -19 -26 10 -61 20 -25 26 -28 39 -17 16 14 40 6 31 -10 -7 -11 7 -38 19
-36 5 1 12 -8 17 -20 5 -15 5 -23 -2 -23 -6 0 -7 -5 -4 -10 4 -6 10 -8 15 -5
5 3 13 -3 19 -12 9 -16 10 -16 11 5 0 12 4 22 8 22 4 0 9 12 10 27 1 15 9 31
16 35 8 5 18 29 22 55 4 25 15 54 25 64 11 11 19 24 19 29 0 6 4 10 10 10 5 0
7 7 4 15 -7 17 22 20 46 5 13 -9 13 -10 0 -10 -12 -1 -12 -3 3 -14 9 -7 17
-18 17 -25 0 -6 5 -11 10 -11 6 0 10 9 10 20 0 13 7 20 19 20 11 0 22 6 24 13
4 9 8 8 16 -3 10 -13 14 -12 30 8 12 13 25 20 35 16 10 -4 16 -1 16 9 0 8 6
18 13 21 8 3 5 11 -11 25 -14 12 -18 22 -12 26 7 4 8 24 4 53 -8 55 -12 62
-25 42 -8 -13 -10 -13 -19 0 -6 8 -9 22 -6 31 2 9 -5 21 -14 27 -15 9 -19 7
-23 -10 -4 -15 -10 -19 -24 -13 -10 4 -25 8 -33 9 -8 0 -17 6 -20 13 -3 8 -12
6 -27 -7z"/>
<path d="M11363 10183 c-20 -7 -15 -51 7 -73 11 -11 17 -26 14 -34 -3 -8 3
-19 15 -26 12 -6 21 -17 21 -25 0 -7 9 -17 20 -20 11 -3 20 -15 20 -26 0 -17
3 -18 20 -7 23 15 38 4 22 -15 -7 -8 -9 -17 -5 -20 13 -13 21 -7 27 23 8 42 8
45 -6 45 -7 0 -14 9 -17 20 -2 10 -27 42 -57 70 -43 40 -52 55 -48 73 6 22 -5
27 -33 15z"/>
</g>
</svg>
